<?xml version="1.0" standalone="no"?>
<!DOCTYPE svg PUBLIC "-//W3C//DTD SVG 20010904//EN"
 "http://www.w3.org/TR/2001/REC-SVG-20010904/DTD/svg10.dtd">
<svg version="1.0" xmlns="http://www.w3.org/2000/svg"
 width="160.000000pt" height="160.000000pt" viewBox="0 0 160.000000 160.000000"
 preserveAspectRatio="xMidYMid meet">
<metadata>
Created by potrace 1.14, written by Peter Selinger 2001-2017
</metadata>
<g transform="translate(0.000000,160.000000) scale(0.100000,-0.100000)"
fill="#000000" stroke="none">
<path d="M701 1513 c-57 -69 -100 -243 -156 -626 -14 -93 -27 -172 -30 -177
-9 -14 -53 -20 -79 -10 -35 13 -58 63 -54 118 2 32 -1 47 -11 50 -11 4 -13
-10 -9 -68 3 -67 6 -75 36 -101 24 -22 42 -29 73 -29 l41 0 -7 -57 c-13 -107
-54 -317 -76 -386 -12 -38 -32 -80 -44 -95 -22 -25 -23 -26 -48 -9 -31 20 -37
21 -37 6 0 -17 31 -38 55 -38 56 0 101 93 135 279 6 36 15 85 20 110 5 25 14
81 20 125 l12 80 56 37 c32 20 106 78 166 128 59 51 112 88 116 83 4 -4 15
-53 25 -108 40 -233 114 -454 181 -542 45 -60 97 -41 162 60 61 94 142 266
142 300 0 40 -11 27 -40 -48 -51 -130 -143 -285 -169 -285 -35 0 -68 133 -91
370 -13 125 -36 307 -46 356 -5 26 -2 34 17 48 13 9 36 16 52 16 23 0 31 -6
40 -30 6 -17 17 -30 24 -30 22 0 15 28 -16 62 -28 31 -30 32 -68 20 -59 -17
-60 -17 -73 41 -16 69 -65 195 -98 255 -15 26 -46 66 -69 90 -36 35 -49 42
-82 42 -33 0 -44 -6 -70 -37z m73 -11 c22 -25 51 -147 76 -322 11 -80 23 -157
26 -171 4 -23 -7 -36 -93 -111 -118 -101 -206 -168 -221 -168 -16 0 -16 -2 13
195 49 331 90 493 142 563 28 37 34 39 57 14z"/>
</g>
</svg>
