<?xml version="1.0" encoding="utf-8"?>
<svg version="1.1" id="elegant-age-verification-tn"
	 xmlns="http://www.w3.org/2000/svg" xmlns:xlink="http://www.w3.org/1999/xlink" x="0px" y="0px" viewBox="0 0 400 400"
	 style="enable-background:new 0 0 400 400;" xml:space="preserve">
<style type="text/css">
	.st0{fill:url(#bg_1_);}
	.st1{fill:#FFFFFF;}
	.st2{fill:url(#SVGID_1_);}
	.st3{fill:url(#SVGID_2_);}
</style>
<linearGradient id="bg_1_" gradientUnits="userSpaceOnUse" x1="-1.818989e-12" y1="400" x2="400" y2="-6.252776e-13">
	<stop  offset="0" style="stop-color:#190066"/>
	<stop  offset="1" style="stop-color:#6B21BA"/>
</linearGradient>
<rect id="bg" class="st0" width="400" height="400"/>
<g id="logo">
	<path class="st1" d="M237,153.2c-2,3.4-2.8,4.4-3.9,6c-1.2,1.8-2.5,3-3.7,3.9c-1.2,0.9-2.7,1.4-3.9,1.4c-1.1,0-1.8-0.2-2.3-0.7
		c-0.5-0.5-0.7-1.2-0.7-2.1c0-0.7,0.2-1.8,0.5-3.2l6.2-29.5h-12.4l-5.9,27.9c-0.7,2.5-1.6,4.4-2.7,5.7c-1.2,1.6-2.7,2.5-4.3,2.5
		c-2.3,0-3.6-1.2-3.6-3.7c0-1.1,0.2-2,0.4-2.8l6.2-29.5h-12.4l-0.9,4.6V133c0-1.2-0.5-2.5-1.8-3.2s-2.8-1.2-5.3-1.2
		c-4.8,0-8.9,1.8-12.4,5.2c-3.2,3-5.7,7.1-7.5,12.1c-0.7,2.1-1.4,4.4-1.8,6.8c-0.4,2-0.5,3.7-0.5,5.5c-0.9,0.9-1.8,1.8-2.5,2.5
		c-1.1,1.1-2.1,1.8-3.2,2.5c-2.7,1.8-5.5,2.5-8.5,2.5c-2.1,0-3.7-0.5-4.6-1.4c-1.1-1.1-1.6-3-1.6-5.9c0-0.9,0-2,0.2-3.6
		c2.5-0.2,5.2-0.7,7.5-1.8c2.5-1.1,4.6-2.3,6.4-3.9c2-1.6,3.4-3.6,4.4-5.7c1.1-2.1,1.6-4.4,1.6-6.9s-0.7-4.4-1.8-5.7
		c-1.6-1.8-4.3-2.5-7.6-2.5c-5.5,0-10.1,2-14,5.7c-1.6,1.6-3,3.6-4.3,5.7c-1.2,2.1-2.3,4.4-3,6.9c-0.7,2.1-1.2,4.3-1.6,6.6
		c-0.4,2.1-0.5,4.1-0.5,5.9c0,4.8,1.2,8.4,3.7,10.5c2.3,2.1,5.7,3.2,10,3.2c5.2,0,10.1-1.6,14.4-5c2-1.6,3.9-3.4,5.5-5.5
		c0.5,3.2,1.6,5.5,3.4,7.5c2,2.1,4.8,3,8,3c2.8,0,5.5-0.9,7.8-2.5c1.8-1.2,3.6-3,5.2-5.5c0.4,2.7,1.2,4.6,2.7,6c1.4,1.2,3.4,2,5.9,2
		c2,0,3.7-0.4,5.5-1.1c2.3-0.9,4.4-2.5,6.4-4.6c0.5-0.5,1.1-1.2,1.4-2c0.4,2.1,1.2,3.7,2.5,5c1.8,1.8,4.4,2.5,7.8,2.5
		c5.5,0,10.8-1.8,14.2-6.8c11.7-16.5,41.2-62.4,54.6-83.2c2.8-4.6-0.4-10.5-5.7-10.5L237,153.2z M146.1,144.4
		c0.7-2.1,1.6-4.1,2.5-5.7c1.1-1.8,2-3.2,3-4.3c1.1-1.1,2.1-1.6,3.2-1.6c0.7,0,1.4,0.4,1.6,0.9c0.4,0.5,0.5,1.4,0.5,2.7
		c0,1.8-0.4,3.6-1.1,5.2s-1.6,3.2-2.8,4.6c-1.2,1.2-2.5,2.5-4.1,3.2s-3,1.2-4.8,1.4C144.7,148.6,145.4,146.5,146.1,144.4
		L146.1,144.4z M188.4,157c-0.5,2.3-1.6,4.3-3,5.7c-0.7,0.5-1.4,1.1-2.1,1.4c-0.7,0.4-1.4,0.5-2.1,0.5c-0.5,0-1.1,0-1.6-0.2
		s-0.9-0.4-1.2-0.7c-1.1-1.1-1.6-3-1.6-5.9c0-1.4,0.2-2.8,0.4-4.6s0.7-3.4,1.2-5.2c1.1-3.9,2.5-7.1,4.3-9.6c0.9-1.4,2-2.5,3-3.2
		s2.1-1.2,3.4-1.2s2.1,0.4,2.8,1.2c0.2,0.4,0.4,0.7,0.5,1.1c0.2,0.4,0.2,0.7,0.2,1.1L188.4,157L188.4,157z"/>
	
		<linearGradient id="SVGID_1_" gradientUnits="userSpaceOnUse" x1="182.5006" y1="-21.8797" x2="218.3086" y2="13.9281" gradientTransform="matrix(1 0 0 -1 0 102)">
		<stop  offset="0" style="stop-color:#9819AF"/>
		<stop  offset="1" style="stop-color:#41119A"/>
	</linearGradient>
	<path class="st2" d="M195.4,75.6l-20.3,35c-2.3,3.9,0.5,8.7,5,8.7h40.4c4.4,0,7.3-4.8,5-8.7l-20.3-35
		C203.2,71.6,197.7,71.6,195.4,75.6L195.4,75.6z"/>
	
		<linearGradient id="SVGID_2_" gradientUnits="userSpaceOnUse" x1="941.8002" y1="-222.2898" x2="977.5771" y2="-186.5129" gradientTransform="matrix(-1 0 0 1 1180.434 290.366)">
		<stop  offset="0" style="stop-color:#9819AF"/>
		<stop  offset="1" style="stop-color:#41119A"/>
	</linearGradient>
	<path class="st3" d="M225.8,116.4l20.3-35c2.3-3.9-0.5-8.7-5-8.7h-40.4c-4.4,0-7.3,4.8-5,8.7l20.3,35
		C217.9,120.2,223.4,120.2,225.8,116.4L225.8,116.4z"/>
</g>
<g>
	<path class="st1" d="M42.4,245H31l4.5-21.4h11.4l-0.6,3h-7.9l-1.2,5.8h7.4l-0.6,3h-7.4l-1.4,6.7H43L42.4,245z"/>
	<path class="st1" d="M50.6,245h-3.4l4.8-22.8h3.4L50.6,245z"/>
	<path class="st1" d="M63,245.3c-1.9,0-3.4-0.5-4.5-1.6s-1.6-2.6-1.6-4.5c0-1.9,0.4-3.7,1.1-5.4c0.8-1.7,1.8-3,3.1-3.9
		s2.7-1.4,4.3-1.4c1.6,0,2.8,0.4,3.7,1.1c0.9,0.7,1.3,1.7,1.3,3c0,1.8-0.8,3.2-2.4,4.2c-1.6,1-3.9,1.5-7,1.5h-0.6l0,0.5v0.4
		c0,1.1,0.3,1.9,0.8,2.5s1.4,0.9,2.5,0.9c0.7,0,1.4-0.1,2.1-0.3s1.5-0.5,2.5-1v2.7c-0.9,0.4-1.8,0.7-2.6,0.9
		C64.8,245.2,64,245.3,63,245.3z M65.2,231.1c-0.9,0-1.8,0.4-2.6,1.3s-1.4,1.9-1.8,3.3h0.4c1.8,0,3.3-0.3,4.3-0.8
		c1-0.5,1.6-1.3,1.6-2.2c0-0.5-0.2-0.9-0.5-1.2C66.3,231.3,65.8,231.1,65.2,231.1z"/>
	<path class="st1" d="M88.7,228.8l-0.5,2l-2.8,0.5c0.3,0.6,0.4,1.2,0.4,2c0,1.9-0.6,3.4-1.7,4.5c-1.2,1.1-2.7,1.7-4.7,1.7
		c-0.5,0-1,0-1.3-0.1c-1.1,0.4-1.6,0.9-1.6,1.5c0,0.4,0.2,0.6,0.5,0.8s0.8,0.2,1.3,0.3l1.9,0.2c1.7,0.2,2.9,0.6,3.7,1.3
		c0.7,0.6,1.1,1.6,1.1,2.7c0,1.9-0.7,3.4-2.2,4.4s-3.6,1.6-6.3,1.6c-2,0-3.5-0.4-4.6-1.1s-1.6-1.7-1.6-3c0-1,0.3-1.9,1-2.6
		s1.8-1.4,3.3-1.9c-0.7-0.4-1.1-1.1-1.1-1.9c0-0.7,0.2-1.3,0.7-1.8c0.5-0.5,1.2-1,2.1-1.4c-1.3-0.8-2-2-2-3.7c0-1.9,0.6-3.5,1.8-4.6
		s2.8-1.8,4.7-1.8c0.8,0,1.6,0.1,2.3,0.3H88.7z M76.7,244.7c-1.1,0.2-1.9,0.5-2.5,1s-0.9,1.2-0.9,1.9c0,0.6,0.3,1.1,0.8,1.5
		c0.5,0.4,1.4,0.6,2.5,0.6c1.6,0,2.8-0.3,3.7-0.8s1.3-1.3,1.3-2.3c0-0.5-0.2-0.9-0.7-1.2s-1.2-0.5-2.3-0.6L76.7,244.7z M80.7,230.8
		c-0.6,0-1.2,0.2-1.7,0.6c-0.5,0.4-0.8,0.9-1.1,1.5c-0.3,0.6-0.4,1.4-0.4,2.1c0,0.7,0.2,1.2,0.5,1.6c0.3,0.4,0.8,0.6,1.5,0.6
		c0.6,0,1.2-0.2,1.6-0.6s0.8-0.9,1.1-1.6s0.4-1.4,0.4-2.2C82.6,231.5,82,230.8,80.7,230.8z"/>
	<path class="st1" d="M94.1,245.3c-1.4,0-2.5-0.5-3.3-1.5c-0.8-1-1.2-2.4-1.2-4.2c0-2,0.3-3.8,1-5.5s1.6-3.1,2.8-4.1
		c1.2-1,2.5-1.5,3.9-1.5c0.9,0,1.8,0.2,2.4,0.7c0.7,0.4,1.2,1.1,1.6,1.9h0.1l0.9-2.3h2.6l-3.5,16.2H99l0.3-2.6h-0.1
		C97.7,244.3,96,245.3,94.1,245.3z M95.4,242.5c0.8,0,1.6-0.4,2.4-1.1c0.8-0.8,1.4-1.8,1.9-3s0.7-2.7,0.7-4.2c0-0.9-0.2-1.5-0.7-2.1
		c-0.5-0.5-1.1-0.8-1.8-0.8c-0.8,0-1.6,0.4-2.3,1.1s-1.3,1.8-1.8,3.1c-0.4,1.3-0.7,2.6-0.7,4c0,1,0.2,1.7,0.6,2.2
		C94.2,242.3,94.7,242.5,95.4,242.5z"/>
	<path class="st1" d="M116.7,245l2.1-9.8c0.2-0.9,0.3-1.5,0.3-1.9c0-1.3-0.6-1.9-1.9-1.9c-0.7,0-1.4,0.3-2.1,0.8s-1.3,1.4-1.8,2.4
		c-0.5,1.1-1,2.2-1.2,3.6l-1.4,6.9h-3.5l3.5-16.2h2.7l-0.3,3h0.1c0.8-1.2,1.6-2,2.5-2.5c0.9-0.5,1.8-0.8,2.8-0.8
		c1.3,0,2.3,0.4,3,1.1s1.1,1.8,1.1,3.2c0,0.7-0.1,1.6-0.3,2.7l-2,9.6H116.7z"/>
	<path class="st1" d="M131.5,242.5c0.7,0,1.4-0.2,2.2-0.5v2.6c-0.3,0.2-0.8,0.3-1.4,0.4s-1.2,0.2-1.8,0.2c-2.7,0-4-1.2-4-3.6
		c0-0.6,0.1-1.2,0.2-1.9l1.8-8.3h-2.4l0.3-1.6l2.8-1.2l1.9-3.4h2.1l-0.8,3.6h4.1l-0.6,2.6H132l-1.8,8.4c-0.1,0.5-0.2,1-0.2,1.3
		c0,0.4,0.1,0.8,0.4,1C130.6,242.4,131,242.5,131.5,242.5z"/>
	<path class="st1" d="M157.2,239.1h-7.1L147,245h-3.7l11.5-21.4h4l2.4,21.4h-3.4L157.2,239.1z M156.9,236c-0.4-4.1-0.6-6.5-0.7-7.4
		c-0.1-0.9-0.1-1.5-0.1-2c-0.5,1.4-1.2,2.9-2.1,4.5l-2.5,4.9H156.9z"/>
	<path class="st1" d="M180.2,228.8l-0.5,2l-2.8,0.5c0.3,0.6,0.4,1.2,0.4,2c0,1.9-0.6,3.4-1.7,4.5c-1.2,1.1-2.7,1.7-4.7,1.7
		c-0.5,0-1,0-1.3-0.1c-1.1,0.4-1.6,0.9-1.6,1.5c0,0.4,0.2,0.6,0.5,0.8s0.8,0.2,1.3,0.3l1.9,0.2c1.7,0.2,2.9,0.6,3.7,1.3
		c0.7,0.6,1.1,1.6,1.1,2.7c0,1.9-0.7,3.4-2.2,4.4s-3.6,1.6-6.3,1.6c-2,0-3.5-0.4-4.6-1.1s-1.6-1.7-1.6-3c0-1,0.3-1.9,1-2.6
		s1.8-1.4,3.3-1.9c-0.7-0.4-1.1-1.1-1.1-1.9c0-0.7,0.2-1.3,0.7-1.8c0.5-0.5,1.2-1,2.1-1.4c-1.3-0.8-2-2-2-3.7c0-1.9,0.6-3.5,1.8-4.6
		s2.8-1.8,4.7-1.8c0.8,0,1.6,0.1,2.3,0.3H180.2z M168.3,244.7c-1.1,0.2-1.9,0.5-2.5,1s-0.9,1.2-0.9,1.9c0,0.6,0.3,1.1,0.8,1.5
		c0.5,0.4,1.4,0.6,2.5,0.6c1.6,0,2.8-0.3,3.7-0.8s1.3-1.3,1.3-2.3c0-0.5-0.2-0.9-0.7-1.2s-1.2-0.5-2.3-0.6L168.3,244.7z
		 M172.2,230.8c-0.6,0-1.2,0.2-1.7,0.6c-0.5,0.4-0.8,0.9-1.1,1.5c-0.3,0.6-0.4,1.4-0.4,2.1c0,0.7,0.2,1.2,0.5,1.6
		c0.3,0.4,0.8,0.6,1.5,0.6c0.6,0,1.2-0.2,1.6-0.6s0.8-0.9,1.1-1.6s0.4-1.4,0.4-2.2C174.2,231.5,173.5,230.8,172.2,230.8z"/>
	<path class="st1" d="M187.4,245.3c-1.9,0-3.4-0.5-4.5-1.6s-1.6-2.6-1.6-4.5c0-1.9,0.4-3.7,1.1-5.4c0.8-1.7,1.8-3,3.1-3.9
		s2.7-1.4,4.3-1.4c1.6,0,2.8,0.4,3.7,1.1c0.9,0.7,1.3,1.7,1.3,3c0,1.8-0.8,3.2-2.4,4.2c-1.6,1-3.9,1.5-7,1.5h-0.6l0,0.5v0.4
		c0,1.1,0.3,1.9,0.8,2.5s1.4,0.9,2.5,0.9c0.7,0,1.4-0.1,2.1-0.3s1.5-0.5,2.5-1v2.7c-0.9,0.4-1.8,0.7-2.6,0.9
		C189.2,245.2,188.3,245.3,187.4,245.3z M189.6,231.1c-0.9,0-1.8,0.4-2.6,1.3s-1.4,1.9-1.8,3.3h0.4c1.8,0,3.3-0.3,4.3-0.8
		c1-0.5,1.6-1.3,1.6-2.2c0-0.5-0.2-0.9-0.5-1.2C190.7,231.3,190.2,231.1,189.6,231.1z"/>
	<path class="st1" d="M212.2,241.4c0.7-1.7,1.4-3.2,2-4.5l6.7-13.3h3.7L213.4,245h-3.8l-2.1-21.4h3.4l1.1,13.3
		c0.1,1,0.1,2.1,0.2,3.4L212.2,241.4L212.2,241.4z"/>
	<path class="st1" d="M230.1,245.3c-1.9,0-3.4-0.5-4.5-1.6s-1.6-2.6-1.6-4.5c0-1.9,0.4-3.7,1.1-5.4c0.8-1.7,1.8-3,3.1-3.9
		s2.7-1.4,4.3-1.4c1.6,0,2.8,0.4,3.7,1.1c0.9,0.7,1.3,1.7,1.3,3c0,1.8-0.8,3.2-2.4,4.2c-1.6,1-3.9,1.5-7,1.5h-0.6l0,0.5v0.4
		c0,1.1,0.3,1.9,0.8,2.5s1.4,0.9,2.5,0.9c0.7,0,1.4-0.1,2.1-0.3s1.5-0.5,2.5-1v2.7c-0.9,0.4-1.8,0.7-2.6,0.9
		C232,245.2,231.1,245.3,230.1,245.3z M232.3,231.1c-0.9,0-1.8,0.4-2.6,1.3s-1.4,1.9-1.8,3.3h0.4c1.8,0,3.3-0.3,4.3-0.8
		c1-0.5,1.6-1.3,1.6-2.2c0-0.5-0.2-0.9-0.5-1.2C233.4,231.3,233,231.1,232.3,231.1z"/>
	<path class="st1" d="M250.8,228.5c0.6,0,1.1,0.1,1.6,0.2l-0.7,3.2c-0.5-0.1-1-0.2-1.5-0.2c-1.2,0-2.3,0.6-3.3,1.7s-1.6,2.5-2,4.3
		l-1.6,7.3h-3.5l3.5-16.2h2.7l-0.3,3h0.1c0.8-1.2,1.6-2,2.4-2.5C249,228.8,249.9,228.5,250.8,228.5z"/>
	<path class="st1" d="M256.2,245h-3.5l3.5-16.2h3.4L256.2,245z M256.9,224.8c0-0.7,0.2-1.2,0.6-1.6s0.9-0.6,1.6-0.6
		c0.5,0,0.9,0.1,1.3,0.4c0.3,0.3,0.5,0.7,0.5,1.2c0,0.7-0.2,1.2-0.6,1.6s-0.9,0.6-1.5,0.6c-0.5,0-0.9-0.1-1.3-0.4
		S256.9,225.4,256.9,224.8z"/>
	<path class="st1" d="M259.9,252.2c-0.9,0-1.6-0.1-2.2-0.3v-2.8c0.6,0.2,1.2,0.3,1.7,0.3c1.3,0,2.2-1,2.6-3l3.2-15h-2.6l0.3-1.6
		l2.8-1.1l0.3-1.3c0.4-1.9,1.1-3.3,2-4.1c0.9-0.8,2.1-1.2,3.8-1.2c1.1,0,2.2,0.2,3.1,0.6l-0.9,2.6c-0.7-0.3-1.4-0.4-2-0.4
		c-0.7,0-1.2,0.2-1.6,0.6s-0.7,1.1-0.9,2.1l-0.3,1.3h3.4l-0.5,2.6h-3.4l-3.3,15.4c-0.4,1.8-1,3.2-1.9,4.1S261.3,252.2,259.9,252.2z
		 M275.3,245h-3.5l3.5-16.2h3.4L275.3,245z M276,224.8c0-0.7,0.2-1.2,0.6-1.6s0.9-0.6,1.6-0.6c0.5,0,0.9,0.1,1.3,0.4
		c0.3,0.3,0.5,0.7,0.5,1.2c0,0.7-0.2,1.2-0.6,1.6s-0.9,0.6-1.5,0.6c-0.5,0-0.9-0.1-1.3-0.4S276,225.4,276,224.8z"/>
	<path class="st1" d="M287.6,245.3c-1.9,0-3.4-0.5-4.5-1.6s-1.6-2.5-1.6-4.4c0-2,0.4-3.9,1.1-5.5c0.7-1.7,1.7-2.9,3-3.9
		c1.3-0.9,2.8-1.4,4.4-1.4c1.6,0,3.1,0.3,4.4,0.9l-1,2.7c-1.2-0.5-2.3-0.8-3.2-0.8c-1.5,0-2.7,0.8-3.7,2.2c-1,1.5-1.5,3.4-1.5,5.6
		c0,1.1,0.3,1.9,0.8,2.5s1.3,0.9,2.3,0.9c0.7,0,1.4-0.1,2-0.3s1.3-0.5,1.9-0.8v2.9C290.7,244.9,289.2,245.3,287.6,245.3z"/>
	<path class="st1" d="M300.7,245.3c-1.4,0-2.5-0.5-3.3-1.5c-0.8-1-1.2-2.4-1.2-4.2c0-2,0.3-3.8,1-5.5s1.6-3.1,2.8-4.1
		c1.2-1,2.5-1.5,3.9-1.5c0.9,0,1.8,0.2,2.4,0.7c0.7,0.4,1.2,1.1,1.6,1.9h0.1l0.9-2.3h2.6l-3.5,16.2h-2.7l0.3-2.6h-0.1
		C304.3,244.3,302.6,245.3,300.7,245.3z M302,242.5c0.8,0,1.6-0.4,2.4-1.1c0.8-0.8,1.4-1.8,1.9-3s0.7-2.7,0.7-4.2
		c0-0.9-0.2-1.5-0.7-2.1c-0.5-0.5-1.1-0.8-1.8-0.8c-0.8,0-1.6,0.4-2.3,1.1s-1.3,1.8-1.8,3.1c-0.4,1.3-0.7,2.6-0.7,4
		c0,1,0.2,1.7,0.6,2.2C300.7,242.3,301.2,242.5,302,242.5z"/>
	<path class="st1" d="M319.6,242.5c0.7,0,1.4-0.2,2.2-0.5v2.6c-0.3,0.2-0.8,0.3-1.4,0.4s-1.2,0.2-1.8,0.2c-2.7,0-4-1.2-4-3.6
		c0-0.6,0.1-1.2,0.2-1.9l1.8-8.3h-2.4l0.3-1.6l2.8-1.2l1.9-3.4h2.1l-0.8,3.6h4.1l-0.6,2.6h-4.1l-1.8,8.4c-0.1,0.5-0.2,1-0.2,1.3
		c0,0.4,0.1,0.8,0.4,1C318.7,242.4,319.1,242.5,319.6,242.5z"/>
	<path class="st1" d="M328.8,245h-3.5l3.5-16.2h3.4L328.8,245z M329.5,224.8c0-0.7,0.2-1.2,0.6-1.6s0.9-0.6,1.6-0.6
		c0.5,0,0.9,0.1,1.3,0.4c0.3,0.3,0.5,0.7,0.5,1.2c0,0.7-0.2,1.2-0.6,1.6s-0.9,0.6-1.5,0.6c-0.5,0-0.9-0.1-1.3-0.4
		S329.5,225.4,329.5,224.8z"/>
	<path class="st1" d="M349.5,234.9c0,2-0.4,3.8-1.1,5.4c-0.7,1.6-1.7,2.9-2.9,3.7c-1.2,0.9-2.7,1.3-4.3,1.3c-1.9,0-3.4-0.6-4.5-1.7
		c-1.1-1.1-1.7-2.6-1.7-4.6c0-1.9,0.3-3.7,1-5.3s1.7-2.9,2.9-3.8c1.3-0.9,2.7-1.4,4.4-1.4c1.9,0,3.4,0.6,4.5,1.7
		S349.5,232.9,349.5,234.9z M346,234.7c0-1-0.2-1.9-0.7-2.5c-0.5-0.6-1.2-0.9-2.1-0.9c-0.9,0-1.7,0.3-2.4,1
		c-0.7,0.7-1.3,1.6-1.7,2.8c-0.4,1.2-0.6,2.5-0.6,3.8c0,1.1,0.2,1.9,0.7,2.5s1.2,0.9,2.1,0.9c0.9,0,1.7-0.3,2.4-1s1.2-1.6,1.6-2.8
		C345.8,237.5,346,236.2,346,234.7z"/>
	<path class="st1" d="M361.8,245l2.1-9.8c0.2-0.9,0.3-1.5,0.3-1.9c0-1.3-0.6-1.9-1.9-1.9c-0.7,0-1.4,0.3-2.1,0.8s-1.3,1.4-1.8,2.4
		c-0.5,1.1-1,2.2-1.2,3.6l-1.4,6.9h-3.5l3.5-16.2h2.7l-0.3,3h0.1c0.8-1.2,1.6-2,2.5-2.5c0.9-0.5,1.8-0.8,2.8-0.8
		c1.3,0,2.3,0.4,3,1.1s1.1,1.8,1.1,3.2c0,0.7-0.1,1.6-0.3,2.7l-2,9.6H361.8z"/>
</g>
<g>
	<path class="st1" d="M67.1,301.1l-1.4,6.8h-1.1l3.3-15.7h3.3c3.1,0,4.6,1.3,4.6,3.9c0,1.3-0.4,2.4-1.1,3.3s-1.8,1.4-3,1.6
		c1.4,4.2,2.2,6.5,2.4,7h-1.2l-2.3-6.8H67.1z M67.4,300.1h2.7c1.5,0,2.6-0.3,3.4-1c0.8-0.7,1.2-1.7,1.2-3c0-1.9-1.2-2.9-3.5-2.9
		h-2.3L67.4,300.1z"/>
	<path class="st1" d="M81.7,308.1c-1.2,0-2.2-0.4-2.9-1.2c-0.7-0.8-1-1.9-1-3.3c0-1.3,0.3-2.5,0.8-3.7s1.2-2.1,2.1-2.8
		s1.9-1.1,2.9-1.1c0.8,0,1.5,0.2,2,0.7s0.7,1,0.7,1.8c0,1.3-0.6,2.3-1.8,3s-2.9,1-5.2,1h-0.4c0,0.3-0.1,0.7-0.1,1.1
		c0,1.2,0.3,2.1,0.8,2.7c0.5,0.6,1.3,0.9,2.3,0.9c0.9,0,1.9-0.3,3-0.8v1C83.9,307.9,82.8,308.1,81.7,308.1z M83.4,296.9
		c-0.9,0-1.8,0.4-2.6,1.2c-0.8,0.8-1.4,1.9-1.7,3.3h0.5c3.7,0,5.6-1,5.6-2.9c0-0.5-0.2-0.9-0.5-1.2C84.4,297.1,84,296.9,83.4,296.9z
		"/>
	<path class="st1" d="M95.1,304.7c0,1-0.4,1.9-1.1,2.5c-0.7,0.6-1.7,0.9-3,0.9c-1.2,0-2.3-0.3-3.3-0.8v-1.1c0.5,0.3,1.1,0.6,1.6,0.8
		s1.1,0.3,1.6,0.3c1,0,1.7-0.2,2.3-0.6c0.5-0.4,0.8-1,0.8-1.8c0-0.3-0.1-0.6-0.2-0.8c-0.1-0.2-0.3-0.4-0.5-0.7
		c-0.2-0.2-0.7-0.5-1.4-0.9c-1.1-0.6-1.8-1.1-2.1-1.6c-0.4-0.5-0.6-1-0.6-1.7c0-0.9,0.4-1.7,1.1-2.3c0.7-0.6,1.6-0.9,2.8-0.9
		c0.5,0,1.1,0.1,1.7,0.2c0.6,0.1,1.1,0.3,1.5,0.5l-0.4,0.9c-1-0.5-1.9-0.7-2.8-0.7c-0.8,0-1.5,0.2-2,0.6s-0.8,0.9-0.8,1.5
		c0,0.4,0.1,0.7,0.2,0.9s0.3,0.5,0.7,0.7c0.3,0.3,0.7,0.5,1.3,0.8c0.8,0.5,1.4,0.8,1.7,1.1c0.3,0.3,0.6,0.6,0.8,0.9
		S95.1,304.3,95.1,304.7z"/>
	<path class="st1" d="M102.5,308.1c-1.6,0-2.6-0.8-3-2.4h0c-0.1,0.5-0.6,3-1.6,7.5h-1.1l3.6-17h0.9l-0.5,2.9h0.1
		c0.7-1.1,1.4-1.9,2.1-2.4c0.7-0.5,1.6-0.8,2.5-0.8c1,0,1.7,0.3,2.2,1c0.5,0.7,0.8,1.7,0.8,3c0,1.4-0.3,2.7-0.8,4s-1.2,2.3-2.1,3
		C104.7,307.7,103.7,308.1,102.5,308.1z M105.2,296.9c-0.6,0-1.2,0.2-1.9,0.6c-0.6,0.4-1.2,1-1.7,1.8c-0.5,0.8-0.9,1.6-1.2,2.6
		c-0.3,0.9-0.4,1.7-0.4,2.2c0,0.9,0.2,1.6,0.7,2.2c0.4,0.5,1,0.8,1.8,0.8c0.9,0,1.7-0.3,2.4-0.9s1.3-1.5,1.8-2.6
		c0.5-1.1,0.7-2.3,0.7-3.5C107.4,298,106.7,296.9,105.2,296.9z"/>
	<path class="st1" d="M117.3,296c1.3,0,2.3,0.4,3,1.2c0.7,0.8,1.1,1.8,1.1,3.2c0,1.4-0.3,2.7-0.8,4c-0.5,1.2-1.2,2.2-2.1,2.8
		c-0.9,0.6-1.9,1-3.1,1c-1.3,0-2.3-0.4-3-1.2c-0.7-0.8-1-1.9-1-3.4c0-1.4,0.3-2.6,0.8-3.8c0.5-1.2,1.2-2.1,2.1-2.8
		C115.2,296.3,116.2,296,117.3,296z M117.3,296.9c-0.9,0-1.7,0.3-2.4,0.8c-0.7,0.6-1.3,1.4-1.7,2.4c-0.4,1-0.6,2.2-0.6,3.3
		c0,2.4,1,3.7,3,3.7c0.9,0,1.7-0.3,2.4-0.8c0.7-0.6,1.3-1.4,1.7-2.4c0.4-1.1,0.6-2.3,0.6-3.6c0-1.1-0.3-2-0.8-2.5
		C119,297.2,118.2,296.9,117.3,296.9z"/>
	<path class="st1" d="M131.5,307.9l1.6-7.4c0.2-0.7,0.2-1.2,0.2-1.7c0-0.6-0.2-1-0.5-1.3s-0.8-0.5-1.4-0.5c-0.8,0-1.6,0.2-2.3,0.7
		s-1.3,1.2-1.8,2c-0.5,0.9-0.9,1.9-1.1,3.1l-1.1,5.1h-1.1l2.5-11.7h0.9l-0.4,2.4h0.1c1.2-1.7,2.7-2.6,4.5-2.6c0.9,0,1.6,0.2,2.1,0.7
		c0.5,0.5,0.7,1.1,0.7,2c0,0.5-0.1,1.2-0.3,2l-1.6,7.2H131.5z"/>
	<path class="st1" d="M144.1,304.7c0,1-0.4,1.9-1.1,2.5c-0.7,0.6-1.7,0.9-3,0.9c-1.2,0-2.3-0.3-3.3-0.8v-1.1
		c0.5,0.3,1.1,0.6,1.6,0.8c0.6,0.2,1.1,0.3,1.6,0.3c1,0,1.7-0.2,2.3-0.6c0.5-0.4,0.8-1,0.8-1.8c0-0.3-0.1-0.6-0.2-0.8
		s-0.3-0.4-0.5-0.7c-0.2-0.2-0.7-0.5-1.4-0.9c-1.1-0.6-1.8-1.1-2.1-1.6c-0.4-0.5-0.6-1-0.6-1.7c0-0.9,0.4-1.7,1.1-2.3
		c0.7-0.6,1.6-0.9,2.8-0.9c0.5,0,1.1,0.1,1.7,0.2c0.6,0.1,1.1,0.3,1.5,0.5l-0.4,0.9c-1-0.5-1.9-0.7-2.8-0.7c-0.8,0-1.5,0.2-2,0.6
		c-0.5,0.4-0.8,0.9-0.8,1.5c0,0.4,0.1,0.7,0.2,0.9c0.1,0.2,0.3,0.5,0.6,0.7c0.3,0.3,0.7,0.5,1.3,0.8c0.8,0.5,1.4,0.8,1.7,1.1
		c0.3,0.3,0.6,0.6,0.8,0.9S144.1,304.3,144.1,304.7z"/>
	<path class="st1" d="M148,307.9h-1.1l2.5-11.7h1L148,307.9z M149.9,293.2c0-0.4,0.1-0.7,0.2-0.9c0.2-0.2,0.4-0.4,0.6-0.4
		c0.4,0,0.6,0.3,0.6,0.8c0,0.4-0.1,0.7-0.2,1c-0.2,0.2-0.4,0.4-0.6,0.4c-0.2,0-0.4-0.1-0.5-0.2C149.9,293.7,149.9,293.5,149.9,293.2
		z"/>
	<path class="st1" d="M155,307.9l-1.8-11.7h1.1l1.2,7.9c0.2,1.2,0.3,2.1,0.4,2.7h0.1c0.4-0.8,0.8-1.7,1.4-2.8l4.4-7.9h1.1l-6.4,11.7
		H155z"/>
	<path class="st1" d="M167.5,308.1c-1.2,0-2.2-0.4-2.9-1.2c-0.7-0.8-1-1.9-1-3.3c0-1.3,0.3-2.5,0.8-3.7c0.5-1.2,1.2-2.1,2.1-2.8
		s1.9-1.1,2.9-1.1c0.8,0,1.5,0.2,2,0.7c0.5,0.4,0.7,1,0.7,1.8c0,1.3-0.6,2.3-1.8,3s-2.9,1-5.2,1h-0.4c0,0.3-0.1,0.7-0.1,1.1
		c0,1.2,0.3,2.1,0.8,2.7c0.5,0.6,1.3,0.9,2.3,0.9c0.9,0,1.9-0.3,3-0.8v1C169.8,307.9,168.7,308.1,167.5,308.1z M169.3,296.9
		c-0.9,0-1.8,0.4-2.6,1.2c-0.8,0.8-1.4,1.9-1.7,3.3h0.5c3.7,0,5.6-1,5.6-2.9c0-0.5-0.2-0.9-0.5-1.2
		C170.2,297.1,169.8,296.9,169.3,296.9z"/>
	<path class="st1" d="M186.9,296c1.7,0,2.7,0.8,3,2.4h0.1l0.6-2.2h0.9l-2.5,11.7h-0.9l0.5-2.9h-0.1c-0.6,1-1.3,1.8-2,2.3
		c-0.7,0.5-1.6,0.8-2.5,0.8c-2,0-3-1.3-3-4c0-1.4,0.3-2.8,0.8-4s1.3-2.3,2.2-3C184.8,296.4,185.8,296,186.9,296z M184.2,307.1
		c0.6,0,1.3-0.2,1.9-0.7s1.2-1,1.7-1.8s0.9-1.6,1.2-2.5c0.3-0.9,0.4-1.7,0.4-2.3c0-0.6-0.1-1.1-0.3-1.5c-0.2-0.4-0.5-0.8-0.8-1.1
		c-0.4-0.3-0.8-0.4-1.4-0.4c-0.9,0-1.7,0.3-2.4,0.9c-0.7,0.6-1.3,1.5-1.8,2.6c-0.5,1.2-0.7,2.3-0.7,3.5c0,1.1,0.2,1.9,0.5,2.4
		C183,306.9,183.5,307.1,184.2,307.1z"/>
	<path class="st1" d="M204.7,296.2l-0.2,0.8l-2.6,0.1c0.2,0.2,0.3,0.5,0.5,0.9c0.1,0.4,0.2,0.8,0.2,1.2c0,0.8-0.2,1.5-0.6,2.2
		c-0.4,0.7-0.9,1.2-1.6,1.6c-0.7,0.3-1.4,0.5-2.3,0.5c-0.5,0-0.7,0-0.8-0.1c-0.6,0.2-1,0.5-1.3,0.8s-0.5,0.6-0.5,0.9
		s0.1,0.5,0.3,0.7c0.2,0.2,0.6,0.3,1.2,0.3l1.3,0.1c2.5,0.2,3.7,1.2,3.7,2.8c0,0.8-0.2,1.5-0.7,2.1c-0.5,0.6-1.1,1.1-2,1.4
		s-1.9,0.5-3.1,0.5c-1.3,0-2.4-0.3-3.1-0.8c-0.8-0.5-1.1-1.2-1.1-2.2c0-1.7,1.1-2.9,3.3-3.6c-0.6-0.3-0.8-0.7-0.8-1.3
		c0-0.9,0.7-1.6,2.1-2.2c-0.5-0.3-0.9-0.6-1.2-1.1c-0.3-0.5-0.4-1.1-0.4-1.7c0-0.8,0.2-1.5,0.6-2.2c0.4-0.7,0.9-1.2,1.6-1.6
		s1.4-0.6,2.2-0.6c0.5,0,1,0.1,1.6,0.2H204.7z M193,310.1c0,0.7,0.3,1.3,0.9,1.6s1.4,0.5,2.4,0.5c1.5,0,2.6-0.3,3.4-0.8
		c0.8-0.5,1.2-1.3,1.2-2.2c0-0.6-0.2-1.1-0.7-1.4c-0.4-0.3-1.2-0.5-2.3-0.6l-1.7-0.2c-1.1,0.3-1.9,0.7-2.4,1.2
		C193.3,308.8,193,309.4,193,310.1z M195.9,300.2c0,0.8,0.2,1.4,0.6,1.8s1,0.6,1.8,0.6c0.6,0,1.2-0.1,1.7-0.4s0.8-0.7,1.1-1.2
		c0.3-0.6,0.4-1.2,0.4-1.8c0-0.7-0.2-1.3-0.6-1.7c-0.4-0.4-1-0.6-1.7-0.6c-0.7,0-1.2,0.2-1.7,0.5s-0.9,0.7-1.1,1.2
		S195.9,299.7,195.9,300.2z"/>
	<path class="st1" d="M209.9,308.1c-1.2,0-2.2-0.4-2.9-1.2c-0.7-0.8-1-1.9-1-3.3c0-1.3,0.3-2.5,0.8-3.7s1.2-2.1,2.1-2.8
		s1.9-1.1,2.9-1.1c0.8,0,1.5,0.2,2,0.7s0.7,1,0.7,1.8c0,1.3-0.6,2.3-1.8,3s-2.9,1-5.2,1h-0.4c0,0.3-0.1,0.7-0.1,1.1
		c0,1.2,0.3,2.1,0.8,2.7c0.5,0.6,1.3,0.9,2.3,0.9c0.9,0,1.9-0.3,3-0.8v1C212.1,307.9,211.1,308.1,209.9,308.1z M211.7,296.9
		c-0.9,0-1.8,0.4-2.6,1.2c-0.8,0.8-1.4,1.9-1.7,3.3h0.5c3.7,0,5.6-1,5.6-2.9c0-0.5-0.2-0.9-0.5-1.2
		C212.6,297.1,212.2,296.9,211.7,296.9z"/>
	<path class="st1" d="M216.6,302.5l0.2-1h4.9l-0.2,1H216.6z"/>
	<path class="st1" d="M235.1,296.2l-0.2,0.8l-2.6,0.1c0.2,0.2,0.3,0.5,0.5,0.9c0.1,0.4,0.2,0.8,0.2,1.2c0,0.8-0.2,1.5-0.6,2.2
		c-0.4,0.7-0.9,1.2-1.6,1.6c-0.7,0.3-1.4,0.5-2.3,0.5c-0.5,0-0.7,0-0.8-0.1c-0.6,0.2-1,0.5-1.3,0.8s-0.5,0.6-0.5,0.9
		s0.1,0.5,0.3,0.7c0.2,0.2,0.6,0.3,1.2,0.3l1.3,0.1c2.5,0.2,3.7,1.2,3.7,2.8c0,0.8-0.2,1.5-0.7,2.1c-0.5,0.6-1.1,1.1-2,1.4
		s-1.9,0.5-3.1,0.5c-1.3,0-2.4-0.3-3.1-0.8c-0.8-0.5-1.1-1.2-1.1-2.2c0-1.7,1.1-2.9,3.3-3.6c-0.6-0.3-0.8-0.7-0.8-1.3
		c0-0.9,0.7-1.6,2.1-2.2c-0.5-0.3-0.9-0.6-1.2-1.1c-0.3-0.5-0.4-1.1-0.4-1.7c0-0.8,0.2-1.5,0.6-2.2c0.4-0.7,0.9-1.2,1.6-1.6
		s1.4-0.6,2.2-0.6c0.5,0,1,0.1,1.6,0.2H235.1z M223.4,310.1c0,0.7,0.3,1.3,0.9,1.6s1.4,0.5,2.4,0.5c1.5,0,2.6-0.3,3.4-0.8
		c0.8-0.5,1.2-1.3,1.2-2.2c0-0.6-0.2-1.1-0.7-1.4c-0.4-0.3-1.2-0.5-2.3-0.6l-1.7-0.2c-1.1,0.3-1.9,0.7-2.4,1.2
		C223.7,308.8,223.4,309.4,223.4,310.1z M226.3,300.2c0,0.8,0.2,1.4,0.6,1.8s1,0.6,1.8,0.6c0.6,0,1.2-0.1,1.7-0.4s0.8-0.7,1.1-1.2
		c0.3-0.6,0.4-1.2,0.4-1.8c0-0.7-0.2-1.3-0.6-1.7c-0.4-0.4-1-0.6-1.7-0.6c-0.7,0-1.2,0.2-1.7,0.5s-0.9,0.7-1.1,1.2
		S226.3,299.7,226.3,300.2z"/>
	<path class="st1" d="M242.3,296c1.7,0,2.7,0.8,3,2.4h0.1l0.6-2.2h0.9l-2.5,11.7h-0.9l0.5-2.9H244c-0.6,1-1.3,1.8-2,2.3
		s-1.6,0.8-2.5,0.8c-2,0-3-1.3-3-4c0-1.4,0.3-2.8,0.8-4s1.3-2.3,2.2-3C240.2,296.4,241.2,296,242.3,296z M239.6,307.1
		c0.6,0,1.3-0.2,1.9-0.7s1.2-1,1.7-1.8s0.9-1.6,1.2-2.5s0.4-1.7,0.4-2.3c0-0.6-0.1-1.1-0.3-1.5c-0.2-0.4-0.5-0.8-0.8-1.1
		c-0.4-0.3-0.8-0.4-1.4-0.4c-0.9,0-1.7,0.3-2.4,0.9s-1.3,1.5-1.8,2.6c-0.5,1.2-0.7,2.3-0.7,3.5c0,1.1,0.2,1.9,0.5,2.4
		C238.4,306.9,238.9,307.1,239.6,307.1z"/>
	<path class="st1" d="M255.7,296.2l-0.2,0.9h-3l-1.5,6.8c-0.2,0.7-0.2,1.3-0.2,1.8c0,1,0.5,1.5,1.4,1.5c0.5,0,1-0.1,1.6-0.3v0.9
		c-0.7,0.2-1.3,0.3-1.8,0.3c-0.7,0-1.3-0.2-1.6-0.6c-0.4-0.4-0.6-1-0.6-1.7c0-0.5,0.1-1.3,0.3-2.2l1.4-6.5h-2l0.2-0.7l2-0.2l1-2.7
		h0.6l-0.6,2.8H255.7z"/>
	<path class="st1" d="M260.8,308.1c-1.2,0-2.2-0.4-2.9-1.2c-0.7-0.8-1-1.9-1-3.3c0-1.3,0.3-2.5,0.8-3.7s1.2-2.1,2.1-2.8
		s1.9-1.1,2.9-1.1c0.8,0,1.5,0.2,2,0.7s0.7,1,0.7,1.8c0,1.3-0.6,2.3-1.8,3s-2.9,1-5.2,1H258c0,0.3-0.1,0.7-0.1,1.1
		c0,1.2,0.3,2.1,0.8,2.7c0.5,0.6,1.3,0.9,2.3,0.9c0.9,0,1.9-0.3,3-0.8v1C263,307.9,261.9,308.1,260.8,308.1z M262.5,296.9
		c-0.9,0-1.8,0.4-2.6,1.2c-0.8,0.8-1.4,1.9-1.7,3.3h0.5c3.7,0,5.6-1,5.6-2.9c0-0.5-0.2-0.9-0.5-1.2
		C263.5,297.1,263,296.9,262.5,296.9z"/>
	<path class="st1" d="M278.4,308.1c-1.6,0-2.6-0.8-3-2.4h0c-0.1,0.5-0.6,3-1.6,7.5h-1.1l3.6-17h0.9l-0.5,2.9h0.1
		c0.7-1.1,1.4-1.9,2.1-2.4s1.6-0.8,2.5-0.8c1,0,1.7,0.3,2.2,1c0.5,0.7,0.8,1.7,0.8,3c0,1.4-0.3,2.7-0.8,4s-1.2,2.3-2.1,3
		S279.6,308.1,278.4,308.1z M281.1,296.9c-0.6,0-1.2,0.2-1.9,0.6c-0.6,0.4-1.2,1-1.7,1.8s-0.9,1.6-1.2,2.6c-0.3,0.9-0.4,1.7-0.4,2.2
		c0,0.9,0.2,1.6,0.7,2.2c0.4,0.5,1,0.8,1.8,0.8c0.9,0,1.7-0.3,2.4-0.9c0.7-0.6,1.3-1.5,1.8-2.6c0.5-1.1,0.7-2.3,0.7-3.5
		C283.3,298,282.6,296.9,281.1,296.9z"/>
	<path class="st1" d="M288.1,307.9h-1l3.6-16.7h1L288.1,307.9z"/>
	<path class="st1" d="M296.3,296.2l-1.6,7.5c-0.2,0.8-0.2,1.3-0.2,1.7c0,0.5,0.2,1,0.5,1.3c0.3,0.3,0.8,0.5,1.5,0.5
		c0.8,0,1.5-0.2,2.2-0.7c0.7-0.5,1.3-1.1,1.8-2c0.5-0.9,0.8-1.9,1.1-3l1.1-5.2h1.1l-2.5,11.7h-0.9l0.3-2.2h-0.1
		c-1.2,1.6-2.6,2.4-4.3,2.4c-0.9,0-1.6-0.2-2.1-0.7s-0.7-1.1-0.7-1.9c0-0.4,0.1-1,0.2-1.8l1.6-7.4H296.3z"/>
	<path class="st1" d="M317.1,296.2l-0.2,0.8l-2.6,0.1c0.2,0.2,0.3,0.5,0.5,0.9s0.2,0.8,0.2,1.2c0,0.8-0.2,1.5-0.6,2.2
		c-0.4,0.7-0.9,1.2-1.6,1.6s-1.4,0.5-2.3,0.5c-0.5,0-0.7,0-0.8-0.1c-0.6,0.2-1,0.5-1.3,0.8c-0.3,0.3-0.5,0.6-0.5,0.9
		s0.1,0.5,0.3,0.7c0.2,0.2,0.6,0.3,1.2,0.3l1.3,0.1c2.5,0.2,3.7,1.2,3.7,2.8c0,0.8-0.2,1.5-0.7,2.1c-0.5,0.6-1.1,1.1-2,1.4
		c-0.9,0.3-1.9,0.5-3.1,0.5c-1.3,0-2.4-0.3-3.1-0.8c-0.8-0.5-1.1-1.2-1.1-2.2c0-1.7,1.1-2.9,3.3-3.6c-0.6-0.3-0.8-0.7-0.8-1.3
		c0-0.9,0.7-1.6,2.1-2.2c-0.5-0.3-0.9-0.6-1.2-1.1c-0.3-0.5-0.4-1.1-0.4-1.7c0-0.8,0.2-1.5,0.6-2.2s0.9-1.2,1.6-1.6s1.4-0.6,2.2-0.6
		c0.5,0,1,0.1,1.6,0.2H317.1z M305.5,310.1c0,0.7,0.3,1.3,0.9,1.6s1.4,0.5,2.4,0.5c1.5,0,2.6-0.3,3.4-0.8c0.8-0.5,1.2-1.3,1.2-2.2
		c0-0.6-0.2-1.1-0.7-1.4c-0.4-0.3-1.2-0.5-2.3-0.6l-1.7-0.2c-1.1,0.3-1.9,0.7-2.4,1.2C305.7,308.8,305.5,309.4,305.5,310.1z
		 M308.4,300.2c0,0.8,0.2,1.4,0.6,1.8s1,0.6,1.8,0.6c0.6,0,1.2-0.1,1.7-0.4s0.8-0.7,1.1-1.2s0.4-1.2,0.4-1.8c0-0.7-0.2-1.3-0.6-1.7
		c-0.4-0.4-1-0.6-1.7-0.6c-0.7,0-1.2,0.2-1.7,0.5c-0.5,0.3-0.9,0.7-1.1,1.2C308.5,299.1,308.4,299.7,308.4,300.2z"/>
	<path class="st1" d="M319.2,307.9h-1.1l2.5-11.7h1L319.2,307.9z M321.1,293.2c0-0.4,0.1-0.7,0.2-0.9c0.2-0.2,0.4-0.4,0.6-0.4
		c0.4,0,0.6,0.3,0.6,0.8c0,0.4-0.1,0.7-0.2,1c-0.2,0.2-0.4,0.4-0.6,0.4c-0.2,0-0.4-0.1-0.5-0.2C321.2,293.7,321.1,293.5,321.1,293.2
		z"/>
	<path class="st1" d="M331.5,307.9l1.6-7.4c0.2-0.7,0.2-1.2,0.2-1.7c0-0.6-0.2-1-0.5-1.3s-0.8-0.5-1.4-0.5c-0.8,0-1.6,0.2-2.3,0.7
		s-1.3,1.2-1.8,2c-0.5,0.9-0.9,1.9-1.1,3.1l-1.1,5.1h-1.1l2.5-11.7h0.9l-0.4,2.4h0.1c1.2-1.7,2.7-2.6,4.5-2.6c0.9,0,1.6,0.2,2.1,0.7
		c0.5,0.5,0.7,1.1,0.7,2c0,0.5-0.1,1.2-0.3,2l-1.6,7.2H331.5z"/>
	<path class="st1" d="M127.7,345.2c-0.3,0-0.7-0.1-1.1-0.2v-1c0.4,0.1,0.7,0.2,1.1,0.2c0.6,0,1.1-0.2,1.4-0.6s0.6-1,0.8-2l2.6-12.5
		h-2.2l0.2-0.7l2.2-0.2l0.4-1.7c0.3-1.2,0.7-2.1,1.3-2.6c0.6-0.5,1.4-0.8,2.4-0.8c0.5,0,1.1,0.1,1.8,0.3l-0.3,0.9
		c-0.6-0.2-1.1-0.3-1.6-0.3c-0.7,0-1.2,0.2-1.6,0.6c-0.4,0.4-0.7,1-0.9,1.9l-0.4,1.8h2.7l-0.2,0.9h-2.7l-2.7,12.8
		c-0.2,1.2-0.6,2-1.1,2.5C129.3,344.9,128.6,345.2,127.7,345.2z"/>
	<path class="st1" d="M143.1,328c1.3,0,2.3,0.4,3,1.2c0.7,0.8,1.1,1.8,1.1,3.2c0,1.4-0.3,2.7-0.8,4c-0.5,1.2-1.2,2.2-2.1,2.8
		s-1.9,1-3.1,1c-1.3,0-2.3-0.4-3-1.2c-0.7-0.8-1-1.9-1-3.4c0-1.4,0.3-2.6,0.8-3.8s1.2-2.1,2.1-2.8S142,328,143.1,328z M143.1,328.9
		c-0.9,0-1.7,0.3-2.4,0.8c-0.7,0.6-1.3,1.4-1.7,2.4c-0.4,1-0.6,2.2-0.6,3.3c0,2.4,1,3.7,3,3.7c0.9,0,1.7-0.3,2.4-0.8
		c0.7-0.6,1.3-1.4,1.7-2.4c0.4-1.1,0.6-2.3,0.6-3.6c0-1.1-0.3-2-0.8-2.5S144,328.9,143.1,328.9z"/>
	<path class="st1" d="M156.7,328c0.5,0,0.9,0,1.3,0.2l-0.2,1c-0.3-0.1-0.7-0.2-1.2-0.2c-0.7,0-1.3,0.2-1.9,0.7s-1.2,1.1-1.6,2.1
		s-0.8,1.9-1.1,3l-1.1,5.2h-1.1l2.5-11.7h0.9l-0.3,2.2h0.1c0.5-0.7,1-1.2,1.3-1.5c0.4-0.3,0.7-0.5,1.1-0.7
		C155.8,328.1,156.3,328,156.7,328z"/>
	<path class="st1" d="M175.5,325.5c-0.2,0.5-0.4,1.1-0.7,1.6c-0.3,0.6-2.3,4.8-6,12.8h-0.9l-0.8-15.7h1.1l0.5,11.1l0,1.8l0,0.9h0.1
		c0.6-1.6,1.2-3,1.8-4.3l4.7-9.5h1.1l0.7,9.4c0.1,1.9,0.2,3.4,0.2,4.4h0.1c0.2-0.6,0.4-1.2,0.7-1.8s2-4.6,5.3-12.1h1.2
		c-1.2,2.6-2.4,5.2-3.6,7.9s-2.3,5.2-3.5,7.9h-0.8l-0.8-11.5c-0.1-1-0.1-1.8-0.1-2.4L175.5,325.5L175.5,325.5z"/>
	<path class="st1" d="M190.6,328c1.3,0,2.3,0.4,3,1.2c0.7,0.8,1.1,1.8,1.1,3.2c0,1.4-0.3,2.7-0.8,4c-0.5,1.2-1.2,2.2-2.1,2.8
		c-0.9,0.6-1.9,1-3.1,1c-1.3,0-2.3-0.4-3-1.2c-0.7-0.8-1-1.9-1-3.4c0-1.4,0.3-2.6,0.8-3.8c0.5-1.2,1.2-2.1,2.1-2.8
		C188.5,328.3,189.5,328,190.6,328z M190.6,328.9c-0.9,0-1.7,0.3-2.4,0.8c-0.7,0.6-1.3,1.4-1.7,2.4c-0.4,1-0.6,2.2-0.6,3.3
		c0,2.4,1,3.7,3,3.7c0.9,0,1.7-0.3,2.4-0.8c0.7-0.6,1.3-1.4,1.7-2.4c0.4-1.1,0.6-2.3,0.6-3.6c0-1.1-0.3-2-0.8-2.5
		C192.3,329.2,191.5,328.9,190.6,328.9z"/>
	<path class="st1" d="M204.2,328c0.5,0,0.9,0,1.3,0.2l-0.2,1c-0.3-0.1-0.7-0.2-1.2-0.2c-0.7,0-1.3,0.2-1.9,0.7
		c-0.6,0.5-1.2,1.1-1.6,2.1c-0.5,0.9-0.8,1.9-1.1,3l-1.1,5.2h-1.1l2.5-11.7h0.9l-0.3,2.2h0.1c0.5-0.7,1-1.2,1.3-1.5
		c0.4-0.3,0.7-0.5,1.1-0.7S203.8,328,204.2,328z"/>
	<path class="st1" d="M212.5,328c1.6,0,2.6,0.8,3,2.4h0c0.1-0.5,0.6-2.9,1.5-7.2h1.1l-3.5,16.7h-0.9l0.5-2.9h-0.1
		c-1.2,2.1-2.8,3.2-4.6,3.2c-2,0-3-1.3-3-4c0-1.4,0.3-2.7,0.8-4s1.2-2.3,2.1-3C210.4,328.4,211.4,328,212.5,328z M209.9,339.1
		c0.6,0,1.3-0.2,1.9-0.7c0.6-0.4,1.2-1,1.7-1.8c0.5-0.8,0.9-1.6,1.1-2.5c0.3-0.9,0.4-1.6,0.4-2.3c0-0.9-0.2-1.6-0.7-2.2
		c-0.4-0.5-1-0.8-1.8-0.8c-0.9,0-1.7,0.3-2.4,0.9c-0.7,0.6-1.3,1.5-1.8,2.6c-0.5,1.1-0.7,2.3-0.7,3.5
		C207.7,338.1,208.4,339.1,209.9,339.1z"/>
	<path class="st1" d="M230.8,328c0,3.6-2.2,5.4-6.6,5.4h-2.2l-1.4,6.5h-1.1l3.3-15.7h3.4c1.4,0,2.6,0.3,3.3,1
		C230.4,325.8,230.8,326.8,230.8,328z M222.3,332.4h2.1c1.8,0,3.1-0.3,4-1c0.9-0.7,1.3-1.8,1.3-3.3c0-2-1.2-2.9-3.5-2.9h-2.3
		L222.3,332.4z"/>
	<path class="st1" d="M239.3,328c0.5,0,0.9,0,1.3,0.2l-0.2,1c-0.3-0.1-0.7-0.2-1.2-0.2c-0.7,0-1.3,0.2-1.9,0.7
		c-0.6,0.5-1.2,1.1-1.6,2.1c-0.5,0.9-0.8,1.9-1.1,3l-1.1,5.2h-1.1l2.5-11.7h0.9l-0.3,2.2h0.1c0.5-0.7,1-1.2,1.3-1.5
		c0.4-0.3,0.7-0.5,1.1-0.7S238.8,328,239.3,328z"/>
	<path class="st1" d="M245.6,340.1c-1.2,0-2.2-0.4-2.9-1.2c-0.7-0.8-1-1.9-1-3.3c0-1.3,0.3-2.5,0.8-3.7c0.5-1.2,1.2-2.1,2.1-2.8
		s1.9-1.1,2.9-1.1c0.8,0,1.5,0.2,2,0.7c0.5,0.4,0.7,1,0.7,1.8c0,1.3-0.6,2.3-1.8,3s-2.9,1-5.2,1h-0.4c0,0.3-0.1,0.7-0.1,1.1
		c0,1.2,0.3,2.1,0.8,2.7c0.5,0.6,1.3,0.9,2.3,0.9c0.9,0,1.9-0.3,3-0.8v1C247.8,339.9,246.7,340.1,245.6,340.1z M247.3,328.9
		c-0.9,0-1.8,0.4-2.6,1.2c-0.8,0.8-1.4,1.9-1.7,3.3h0.5c3.7,0,5.6-1,5.6-2.9c0-0.5-0.2-0.9-0.5-1.2
		C248.3,329.1,247.9,328.9,247.3,328.9z"/>
	<path class="st1" d="M259,336.7c0,1-0.4,1.9-1.1,2.5c-0.7,0.6-1.7,0.9-3,0.9c-1.2,0-2.3-0.3-3.3-0.8v-1.1c0.5,0.3,1.1,0.6,1.6,0.8
		c0.6,0.2,1.1,0.3,1.6,0.3c1,0,1.7-0.2,2.3-0.6c0.5-0.4,0.8-1,0.8-1.8c0-0.3-0.1-0.6-0.2-0.8s-0.3-0.4-0.5-0.7
		c-0.2-0.2-0.7-0.5-1.4-0.9c-1.1-0.6-1.8-1.1-2.1-1.6c-0.4-0.5-0.6-1-0.6-1.7c0-0.9,0.4-1.7,1.1-2.3c0.7-0.6,1.6-0.9,2.8-0.9
		c0.5,0,1.1,0.1,1.7,0.2c0.6,0.1,1.1,0.3,1.5,0.5l-0.4,0.9c-1-0.5-1.9-0.7-2.8-0.7c-0.8,0-1.5,0.2-2,0.6c-0.5,0.4-0.8,0.9-0.8,1.5
		c0,0.4,0.1,0.7,0.2,0.9c0.1,0.2,0.3,0.5,0.6,0.7c0.3,0.3,0.7,0.5,1.3,0.8c0.8,0.5,1.4,0.8,1.7,1.1c0.3,0.3,0.6,0.6,0.8,0.9
		S259,336.3,259,336.7z"/>
	<path class="st1" d="M268.7,336.7c0,1-0.4,1.9-1.1,2.5c-0.7,0.6-1.7,0.9-3,0.9c-1.2,0-2.3-0.3-3.3-0.8v-1.1
		c0.5,0.3,1.1,0.6,1.6,0.8s1.1,0.3,1.6,0.3c1,0,1.7-0.2,2.3-0.6c0.5-0.4,0.8-1,0.8-1.8c0-0.3-0.1-0.6-0.2-0.8
		c-0.1-0.2-0.3-0.4-0.5-0.7c-0.2-0.2-0.7-0.5-1.4-0.9c-1.1-0.6-1.8-1.1-2.1-1.6c-0.4-0.5-0.6-1-0.6-1.7c0-0.9,0.4-1.7,1.1-2.3
		c0.7-0.6,1.6-0.9,2.8-0.9c0.5,0,1.1,0.1,1.7,0.2c0.6,0.1,1.1,0.3,1.5,0.5l-0.4,0.9c-1-0.5-1.9-0.7-2.8-0.7c-0.8,0-1.5,0.2-2,0.6
		s-0.8,0.9-0.8,1.5c0,0.4,0.1,0.7,0.2,0.9s0.3,0.5,0.7,0.7c0.3,0.3,0.7,0.5,1.3,0.8c0.8,0.5,1.4,0.8,1.7,1.1
		c0.3,0.3,0.6,0.6,0.8,0.9S268.7,336.3,268.7,336.7z"/>
</g>
</svg>
