<svg id="gdpr-cookie-law" xmlns="http://www.w3.org/2000/svg" viewBox="0 0 400 400"><style>.st1,.st2{fill:#fff}.st2{stroke:#cb2127;stroke-width:.75;stroke-miterlimit:10}.st3{fill:#121212}</style><rect id="bg" width="400" height="400" fill="#cc2128"/><path class="st1" d="M71.7 301.7h8.5v11.1c-1.4.4-2.7.8-3.9.9-1.2.2-2.5.3-3.7.3-3.2 0-5.7-.9-7.4-2.8-1.7-1.9-2.6-4.6-2.6-8.2 0-3.5 1-6.2 3-8.1s4.7-2.9 8.2-2.9c2.2 0 4.3.4 6.4 1.3l-1.5 3.6c-1.6-.8-3.2-1.2-4.9-1.2-2 0-3.5.7-4.7 2s-1.8 3.1-1.8 5.3c0 2.3.5 4.1 1.4 5.3s2.3 1.8 4.2 1.8c.9 0 1.9-.1 2.9-.3v-4.5h-4.1v-3.6zm31.3 1.1c0 3.5-1 6.2-3 8.1s-4.9 2.8-8.7 2.8h-6.1v-21.4H92c3.5 0 6.2.9 8.1 2.8s2.9 4.4 2.9 7.7zm-4.7.1c0-4.6-2-6.9-6.1-6.9h-2.4v13.9h1.9c4.4 0 6.6-2.3 6.6-7zm23.9-3.9c0 2.3-.7 4.1-2.2 5.3s-3.5 1.8-6.1 1.8H112v7.6h-4.5v-21.4h6.8c2.6 0 4.6.6 5.9 1.7s2 2.7 2 5zm-10.2 3.4h1.5c1.4 0 2.4-.3 3.1-.8.7-.6 1-1.4 1-2.4 0-1.1-.3-1.9-.9-2.4s-1.5-.8-2.7-.8h-2v6.4zm18.8 3.1v8.2h-4.5v-21.4h6.2c2.9 0 5.1.5 6.5 1.6s2.1 2.7 2.1 4.8c0 1.3-.3 2.4-1 3.4s-1.7 1.8-2.9 2.3c3.2 4.8 5.3 7.9 6.3 9.3h-5l-5.1-8.2h-2.6zm0-3.7h1.5c1.4 0 2.5-.2 3.2-.7s1-1.2 1-2.3c0-1-.3-1.7-1-2.2s-1.8-.6-3.2-.6h-1.4v5.8zm32.2-6.1c-1.7 0-3 .6-4 1.9s-1.4 3.1-1.4 5.4c0 4.8 1.8 7.2 5.4 7.2 1.5 0 3.3-.4 5.5-1.1v3.8c-1.8.7-3.7 1.1-5.9 1.1-3.1 0-5.5-.9-7.1-2.8-1.7-1.9-2.5-4.6-2.5-8.1 0-2.2.4-4.2 1.2-5.9.8-1.7 2-3 3.5-3.9 1.5-.9 3.3-1.3 5.3-1.3 2.1 0 4.2.5 6.3 1.5l-1.5 3.7c-.8-.4-1.6-.7-2.4-1s-1.6-.5-2.4-.5zm29.4 7.3c0 3.5-.9 6.3-2.6 8.2s-4.3 2.9-7.6 2.9-5.8-1-7.6-2.9-2.6-4.6-2.6-8.2.9-6.3 2.6-8.2c1.8-1.9 4.3-2.8 7.6-2.8s5.8.9 7.6 2.8 2.6 4.6 2.6 8.2zm-15.6 0c0 2.4.5 4.2 1.4 5.4s2.3 1.8 4.1 1.8c3.6 0 5.4-2.4 5.4-7.2 0-4.8-1.8-7.2-5.4-7.2-1.8 0-3.2.6-4.1 1.8-.9 1.2-1.4 3-1.4 5.4zm39.5 0c0 3.5-.9 6.3-2.6 8.2s-4.3 2.9-7.6 2.9-5.8-1-7.6-2.9-2.6-4.6-2.6-8.2.9-6.3 2.6-8.2c1.8-1.9 4.3-2.8 7.6-2.8s5.8.9 7.6 2.8c1.7 1.9 2.6 4.6 2.6 8.2zm-15.6 0c0 2.4.5 4.2 1.4 5.4s2.3 1.8 4.1 1.8c3.6 0 5.4-2.4 5.4-7.2 0-4.8-1.8-7.2-5.4-7.2-1.8 0-3.2.6-4.1 1.8-.9 1.2-1.4 3-1.4 5.4zm37.3 10.7h-5.2l-5.6-9-1.9 1.4v7.6h-4.5v-21.4h4.5v9.8l1.8-2.5 5.8-7.3h5l-7.5 9.5 7.6 11.9zm2.7 0v-21.4h4.5v21.4h-4.5zm22.2 0h-12.3v-21.4h12.3v3.7h-7.8v4.7h7.3v3.7h-7.3v5.5h7.8v3.8zm12.3 0v-21.4h4.5V310h8.7v3.8h-13.2zm30.1 0l-1.6-5.1h-7.8l-1.6 5.1h-4.9l7.6-21.5h5.6l7.6 21.5h-4.9zm-2.7-8.9c-1.4-4.6-2.2-7.2-2.4-7.8s-.3-1.1-.4-1.4c-.3 1.2-1.2 4.3-2.8 9.3h5.6zm31.1 8.9h-5.2l-2.9-11.2c-.1-.4-.3-1.2-.5-2.5s-.4-2.1-.4-2.5c-.1.5-.2 1.4-.4 2.5-.2 1.2-.4 2-.5 2.5l-2.9 11.2h-5.2l-5.5-21.4h4.5l2.7 11.7c.5 2.2.8 4 1 5.6.1-.6.2-1.4.4-2.6.2-1.2.4-2.1.6-2.7l3.1-12h4.3l3.1 12c.1.5.3 1.4.5 2.5s.4 2.1.5 2.8c.1-.8.3-1.7.5-2.8s.4-2.1.6-2.8l2.7-11.7h4.5l-5.5 21.4z" id="text"/><path class="st1" d="M62.8 339.4c-.5 0-.8-.1-1.1-.2v-1c.3.1.7.1 1 .1.4 0 .7-.1.8-.3.2-.2.3-.5.3-.9v-9.3H65v9.3c0 1.5-.7 2.3-2.2 2.3zm.9-13.8c0-.3.1-.5.2-.6.1-.1.3-.2.5-.2s.4.1.5.2.2.3.2.6-.1.5-.2.6c-.1.1-.3.2-.5.2s-.4-.1-.5-.2c-.1-.1-.2-.3-.2-.6zm13.4 4.8c0 1.4-.3 2.5-.8 3.4s-1.3 1.5-2.3 1.8l2.5 2.7h-1.8l-2.1-2.4h-.4c-1.6 0-2.8-.5-3.7-1.4-.9-1-1.3-2.3-1.3-4.1 0-1.7.4-3.1 1.3-4.1.9-1 2.1-1.4 3.7-1.4 1.5 0 2.7.5 3.6 1.5.8 1 1.3 2.3 1.3 4zm-8.6 0c0 1.5.3 2.6.9 3.3.6.8 1.5 1.1 2.7 1.1 1.2 0 2.1-.4 2.7-1.1s.9-1.8.9-3.3c0-1.4-.3-2.5-.9-3.3-.6-.7-1.5-1.1-2.7-1.1-1.2 0-2.1.4-2.7 1.1-.6.8-.9 1.9-.9 3.3zm11.9-2.6v5.2c0 .7.1 1.1.4 1.5s.8.5 1.4.5c.8 0 1.5-.2 1.8-.7.4-.5.6-1.2.6-2.2v-4.2h1.2v8h-1l-.2-1.1h-.1c-.2.4-.6.7-1 .9-.4.2-.9.3-1.5.3-1 0-1.7-.2-2.2-.7s-.7-1.2-.7-2.2v-5.3h1.3zm11.5 8.1c-1.2 0-2.1-.4-2.8-1.1s-1-1.7-1-3 .3-2.3 1-3.1c.6-.8 1.5-1.1 2.6-1.1 1 0 1.8.3 2.4 1 .6.7.9 1.5.9 2.6v.8h-5.5c0 .9.3 1.7.7 2.1.5.5 1.1.7 1.9.7.9 0 1.7-.2 2.6-.5v1.1c-.4.2-.8.3-1.2.4-.6.1-1.1.1-1.6.1zm-.4-7.3c-.6 0-1.2.2-1.5.6s-.6 1-.7 1.7h4.2c0-.8-.2-1.4-.5-1.8-.3-.3-.8-.5-1.5-.5zm9.1-1c.4 0 .7 0 1 .1l-.2 1.1c-.3-.1-.6-.1-.9-.1-.6 0-1.2.3-1.7.8s-.7 1.2-.7 2v4.3h-1.2v-8h1l.1 1.5h.1c.3-.5.7-.9 1.1-1.2s.9-.5 1.4-.5zm1.1.2h1.3l1.8 4.6c.4 1 .6 1.8.7 2.3h.1c.1-.2.2-.7.4-1.3.2-.6.9-2.5 2-5.6h1.3l-3.4 9.1c-.3.9-.7 1.5-1.2 1.9-.5.4-1 .6-1.7.6-.4 0-.7 0-1.1-.1v-1c.3.1.6.1.9.1.8 0 1.4-.5 1.8-1.4l.4-1.1-3.3-8.1zm17.7 2.4h3.6v5.2c-.6.2-1.1.3-1.7.4-.6.1-1.3.1-2 .1-1.6 0-2.9-.5-3.8-1.4-.9-1-1.4-2.3-1.4-4.1 0-1.1.2-2.1.7-2.9.4-.8 1.1-1.5 1.9-1.9.8-.4 1.8-.7 3-.7 1.1 0 2.2.2 3.2.6l-.5 1.1c-1-.4-1.9-.6-2.8-.6-1.3 0-2.3.4-3.1 1.2s-1.1 1.9-1.1 3.2c0 1.4.4 2.5 1.1 3.3s1.7 1.1 3.1 1.1c.7 0 1.5-.1 2.2-.3v-3.3h-2.4v-1zm14.7.1c0 1.8-.5 3.1-1.4 4.1-1 .9-2.3 1.4-4.1 1.4h-3v-10.7h3.3c1.7 0 3 .5 3.9 1.4.9.9 1.3 2.2 1.3 3.8zm-1.3.1c0-1.4-.4-2.4-1.1-3.2-.7-.7-1.7-1.1-3.1-1.1h-1.8v8.6h1.5c1.5 0 2.6-.4 3.3-1.1.8-.7 1.2-1.8 1.2-3.2zm10.5-2.2c0 1.1-.4 1.9-1.1 2.5-.7.6-1.8.9-3.2.9h-1.3v4.2h-1.2v-10.7h2.8c2.7 0 4 1 4 3.1zm-5.5 2.3h1.1c1.1 0 1.9-.2 2.4-.5s.7-.9.7-1.7c0-.7-.2-1.2-.7-1.6s-1.2-.5-2.2-.5h-1.4v4.3zm9 .8v4.5h-1.2v-10.7h2.9c1.3 0 2.3.3 2.9.8s.9 1.3.9 2.3c0 1.4-.7 2.4-2.2 2.9l2.9 4.8h-1.5l-2.6-4.5h-2.1zm0-1h1.7c.9 0 1.5-.2 1.9-.5.4-.3.6-.9.6-1.6 0-.7-.2-1.2-.6-1.5-.4-.3-1.1-.5-2-.5h-1.6v4.1zm16.5-4.3c-1.2 0-2.1.4-2.8 1.2-.7.8-1 1.9-1 3.2 0 1.4.3 2.5 1 3.2.7.8 1.6 1.1 2.8 1.1.7 0 1.6-.1 2.6-.4v1.1c-.7.3-1.7.4-2.7.4-1.6 0-2.8-.5-3.7-1.4-.9-1-1.3-2.3-1.3-4.1 0-1.1.2-2.1.6-2.9.4-.8 1-1.5 1.8-1.9s1.7-.7 2.8-.7c1.1 0 2.1.2 2.9.6l-.5 1.1c-.9-.3-1.7-.5-2.5-.5zm11.6 5.8c0 1.3-.3 2.3-1 3.1-.7.7-1.6 1.1-2.7 1.1-.7 0-1.4-.2-1.9-.5-.6-.3-1-.8-1.3-1.4-.3-.6-.5-1.4-.5-2.2 0-1.3.3-2.3 1-3.1.7-.7 1.6-1.1 2.7-1.1s2 .4 2.7 1.1c.7.7 1 1.7 1 3zm-6.1 0c0 1 .2 1.8.6 2.3.4.5 1 .8 1.8.8s1.4-.3 1.8-.8c.4-.5.6-1.3.6-2.3 0-1-.2-1.8-.6-2.3-.4-.5-1-.8-1.8-.8s-1.4.3-1.8.8-.6 1.2-.6 2.3zm15.2 0c0 1.3-.3 2.3-1 3.1-.7.7-1.6 1.1-2.7 1.1-.7 0-1.4-.2-1.9-.5-.6-.3-1-.8-1.3-1.4-.3-.6-.5-1.4-.5-2.2 0-1.3.3-2.3 1-3.1.7-.7 1.6-1.1 2.7-1.1s2 .4 2.7 1.1c.6.7 1 1.7 1 3zm-6.1 0c0 1 .2 1.8.6 2.3.4.5 1 .8 1.8.8s1.4-.3 1.8-.8c.4-.5.6-1.3.6-2.3 0-1-.2-1.8-.6-2.3-.4-.5-1-.8-1.8-.8s-1.4.3-1.8.8-.6 1.2-.6 2.3zm9.4-.1c.2-.3.5-.7 1-1.2l2.6-2.7h1.4l-3.3 3.4 3.5 4.6H191l-2.8-3.8-.9.8v3h-1.2v-11.4h1.2v7.3zm6.6-6.1c0-.3.1-.5.2-.6.1-.1.3-.2.5-.2s.4.1.5.2.2.3.2.6-.1.5-.2.6c-.1.1-.3.2-.5.2s-.4-.1-.5-.2c-.2-.1-.2-.3-.2-.6zm1.3 10.2H194v-8h1.2v8zm6 .1c-1.2 0-2.1-.4-2.8-1.1s-1-1.7-1-3 .3-2.3 1-3.1c.6-.8 1.5-1.1 2.6-1.1 1 0 1.8.3 2.4 1 .6.7.9 1.5.9 2.6v.8h-5.5c0 .9.3 1.7.7 2.1.5.5 1.1.7 1.9.7.9 0 1.7-.2 2.6-.5v1.1c-.4.2-.8.3-1.2.4-.6.1-1.1.1-1.6.1zm-.4-7.3c-.6 0-1.2.2-1.5.6s-.6 1-.7 1.7h4.2c0-.8-.2-1.4-.5-1.8-.3-.3-.8-.5-1.5-.5zm14.1-2.6c-1.2 0-2.1.4-2.8 1.2-.7.8-1 1.9-1 3.2 0 1.4.3 2.5 1 3.2.7.8 1.6 1.1 2.8 1.1.7 0 1.6-.1 2.6-.4v1.1c-.7.3-1.7.4-2.7.4-1.6 0-2.8-.5-3.7-1.4-.9-1-1.3-2.3-1.3-4.1 0-1.1.2-2.1.6-2.9.4-.8 1-1.5 1.8-1.9.8-.4 1.7-.7 2.8-.7 1.1 0 2.1.2 2.9.6l-.5 1.1c-.9-.3-1.7-.5-2.5-.5zm11.6 5.8c0 1.3-.3 2.3-1 3.1-.7.7-1.6 1.1-2.7 1.1-.7 0-1.4-.2-1.9-.5-.6-.3-1-.8-1.3-1.4-.3-.6-.5-1.4-.5-2.2 0-1.3.3-2.3 1-3.1.7-.7 1.6-1.1 2.7-1.1s2 .4 2.7 1.1c.6.7 1 1.7 1 3zm-6.1 0c0 1 .2 1.8.6 2.3.4.5 1 .8 1.8.8s1.4-.3 1.8-.8c.4-.5.6-1.3.6-2.3 0-1-.2-1.8-.6-2.3-.4-.5-1-.8-1.8-.8s-1.4.3-1.8.8-.6 1.2-.6 2.3zm18.4 4v-5.2c0-.6-.1-1.1-.4-1.4-.3-.3-.7-.5-1.3-.5-.8 0-1.3.2-1.7.7s-.5 1.1-.5 2v4.5h-1.2v-5.2c0-.6-.1-1.1-.4-1.4-.3-.3-.7-.5-1.3-.5-.8 0-1.3.2-1.7.7-.4.5-.5 1.2-.5 2.2v4.2h-1.2v-8h1l.2 1.1h.1c.2-.4.6-.7 1-.9.4-.2.9-.3 1.4-.3 1.3 0 2.1.5 2.5 1.4h.1c.2-.4.6-.8 1-1s1-.4 1.6-.4c.9 0 1.6.2 2 .7.5.5.7 1.2.7 2.2v5.2h-1.4zm7.5.1c-.5 0-1-.1-1.4-.3-.4-.2-.8-.5-1.1-.9h-.1c.1.5.1.9.1 1.3v3.3h-1.2v-11.6h1l.2 1.1h.1c.3-.4.7-.8 1.1-1s.9-.3 1.4-.3c1.1 0 1.9.4 2.5 1.1.6.7.9 1.7.9 3.1 0 1.3-.3 2.3-.9 3.1-.7.8-1.6 1.1-2.6 1.1zm-.2-7.3c-.8 0-1.4.2-1.8.7-.4.5-.6 1.2-.6 2.2v.3c0 1.1.2 1.9.6 2.4.4.5 1 .7 1.8.7.7 0 1.2-.3 1.6-.8.4-.6.6-1.3.6-2.3 0-1-.2-1.8-.6-2.3-.3-.6-.9-.9-1.6-.9zm6.9 7.2h-1.2v-11.4h1.2v11.4zm2.4-10.2c0-.3.1-.5.2-.6.1-.1.3-.2.5-.2s.4.1.5.2c.1.1.2.3.2.6s-.1.5-.2.6c-.1.1-.3.2-.5.2s-.4-.1-.5-.2c-.1-.1-.2-.3-.2-.6zm1.4 10.2h-1.2v-8h1.2v8zm7.5 0l-.2-1.1h-.1c-.4.5-.8.8-1.2 1-.4.2-.9.3-1.5.3-.8 0-1.4-.2-1.9-.6-.5-.4-.7-1-.7-1.8 0-1.6 1.3-2.5 3.9-2.5h1.4v-.5c0-.6-.1-1.1-.4-1.4-.3-.3-.7-.5-1.3-.5-.7 0-1.4.2-2.3.6l-.4-.9c.4-.2.8-.4 1.3-.5.5-.1.9-.2 1.4-.2 1 0 1.7.2 2.1.6.5.4.7 1.1.7 2v5.5h-.8zm-2.8-.9c.8 0 1.4-.2 1.8-.6.4-.4.6-1 .6-1.7v-.7l-1.2.1c-1 0-1.7.2-2.1.5-.4.3-.6.7-.6 1.2 0 .4.1.8.4 1 .3.1.7.2 1.1.2zm11.7.9v-5.2c0-.7-.1-1.1-.4-1.5-.3-.3-.8-.5-1.4-.5-.8 0-1.5.2-1.8.7s-.6 1.2-.6 2.2v4.2h-1.2v-8h1l.2 1.1h.1c.2-.4.6-.7 1-.9.4-.2.9-.3 1.5-.3 1 0 1.7.2 2.2.7.5.5.7 1.2.7 2.2v5.2h-1.3zm6.9.1c-1.2 0-2.1-.4-2.7-1.1-.6-.7-1-1.7-1-3s.3-2.4 1-3.1c.6-.7 1.6-1.1 2.8-1.1.4 0 .8 0 1.2.1s.7.2.9.3l-.4 1-.9-.3c-.3-.1-.6-.1-.8-.1-1.6 0-2.4 1-2.4 3.1 0 1 .2 1.7.6 2.3.4.5 1 .8 1.8.8.7 0 1.4-.1 2.1-.4v1.1c-.7.3-1.4.4-2.2.4zm7.3 0c-1.2 0-2.1-.4-2.8-1.1-.7-.7-1-1.7-1-3s.3-2.3 1-3.1c.6-.8 1.5-1.1 2.6-1.1 1 0 1.8.3 2.4 1 .6.7.9 1.5.9 2.6v.8H285c0 .9.3 1.7.7 2.1.5.5 1.1.7 1.9.7.9 0 1.7-.2 2.6-.5v1.1c-.4.2-.8.3-1.2.4-.6.1-1 .1-1.6.1zm-.3-7.3c-.6 0-1.2.2-1.5.6-.4.4-.6 1-.7 1.7h4.2c0-.8-.2-1.4-.5-1.8-.4-.3-.9-.5-1.5-.5zm16.2-.4c0 1.1-.4 1.9-1.1 2.5-.7.6-1.8.9-3.2.9h-1.3v4.2h-1.2v-10.7h2.8c2.7 0 4 1 4 3.1zm-5.5 2.3h1.1c1.1 0 1.9-.2 2.4-.5s.7-.9.7-1.7c0-.7-.2-1.2-.7-1.6-.5-.3-1.2-.5-2.2-.5h-1.4v4.3zm8.8 5.3h-1.2v-11.4h1.2v11.4zm3.7-8v5.2c0 .7.1 1.1.4 1.5.3.3.8.5 1.4.5.8 0 1.5-.2 1.8-.7.4-.5.6-1.2.6-2.2v-4.2h1.2v8h-1l-.2-1.1h-.1c-.2.4-.6.7-1 .9-.4.2-.9.3-1.5.3-1 0-1.7-.2-2.2-.7-.5-.5-.7-1.2-.7-2.2v-5.3h1.3zm14.6 0v.8l-1.5.2c.1.2.3.4.4.7.1.3.2.6.2.9 0 .8-.3 1.4-.8 1.9s-1.3.7-2.2.7c-.2 0-.5 0-.7-.1-.5.3-.8.6-.8 1 0 .2.1.4.3.5.2.1.5.2.9.2h1.4c.9 0 1.5.2 2 .5.5.4.7.9.7 1.6 0 .9-.4 1.6-1.1 2-.7.5-1.8.7-3.1.7-1 0-1.9-.2-2.4-.6-.6-.4-.9-.9-.9-1.7 0-.5.2-.9.5-1.3s.8-.6 1.3-.7c-.2-.1-.4-.2-.5-.4-.1-.2-.2-.4-.2-.7 0-.3.1-.5.2-.8.2-.2.4-.4.7-.6-.4-.2-.8-.5-1-.9-.3-.4-.4-.9-.4-1.4 0-.9.3-1.6.8-2 .5-.5 1.3-.7 2.2-.7.4 0 .8 0 1.1.1h2.9zm-6.4 9.3c0 .4.2.8.5 1s.9.3 1.6.3c1 0 1.8-.2 2.3-.5.5-.3.7-.7.7-1.2 0-.4-.1-.7-.4-.9-.3-.2-.8-.3-1.5-.3h-1.5c-.6 0-1 .1-1.3.4s-.4.7-.4 1.2zm.7-6.8c0 .6.2 1 .5 1.3s.8.4 1.3.4c1.2 0 1.8-.6 1.8-1.7 0-1.2-.6-1.8-1.8-1.8-.6 0-1 .2-1.3.5s-.5.7-.5 1.3zm7.3-4.7c0-.3.1-.5.2-.6.1-.1.3-.2.5-.2s.4.1.5.2c.1.1.2.3.2.6s-.1.5-.2.6c-.1.1-.3.2-.5.2s-.4-.1-.5-.2c-.1-.1-.2-.3-.2-.6zm1.3 10.2h-1.2v-8h1.2v8zm8.1 0v-5.2c0-.7-.1-1.1-.4-1.5-.3-.3-.8-.5-1.4-.5-.8 0-1.5.2-1.8.7s-.6 1.2-.6 2.2v4.2h-1.2v-8h1l.2 1.1h.1c.2-.4.6-.7 1-.9.4-.2.9-.3 1.5-.3 1 0 1.7.2 2.2.7.5.5.7 1.2.7 2.2v5.2h-1.3z" id="text_1_"/><g id="cookie"><path class="st2" d="M269.2 156.4c-1.9 9.3 4.3 18.6 13.6 20.6 1.2.4 2.3.4 3.5.4 8.1 0 15.5-5.8 17.1-14 1.9-9.3-4.3-18.6-13.6-20.6-1.2-.4-2.3-.4-3.5-.4-8.2.1-15.2 5.9-17.1 14zm11.6 2.4c.8-3.1 3.5-5 7-4.7 3.1.8 5 3.9 4.7 7-.4 2.7-3.1 4.7-5.8 4.7h-1.2c-3.5-.8-5.5-3.9-4.7-7z"/><path class="st2" d="M286.2 175.4c-1 0-2 0-2.9-.3h-.2c-8.2-1.7-13.7-10-12-18.2 1.7-7.3 8-12.4 15.1-12.4 1.1 0 2 0 2.9.3h.2c4 .8 7.5 3.2 9.7 6.7 2.3 3.5 3.1 7.6 2.3 11.5-1.3 7.1-7.8 12.4-15.1 12.4zm.7-23.3c-3.9 0-7.1 2.4-8 6.2-.5 2-.2 4 .9 5.8 1.1 1.8 3 3.1 5.3 3.6h1.6c3.9 0 7.3-2.8 7.8-6.4.5-4.3-2.1-8.2-6.1-9.2h-1.5z"/><path class="st2" d="M277.3 94c-1.9 0-3.9 1.2-5 3.1-6.6 11.3-17.5 19-29.9 21.3-.5.3-1 .6-1.5.8-1.8 1 2.8 12.8 1.2 13.7-8.2 4.8-9.2 5.2-13.4 7.1-.6.3-11.2-5.5-11.7-5.2-2 1.4-3.7 3.3-3.7 3.3-1.2 1.2-1.9 2.3-1.9 3.9-.8 8.1-7.4 15.1-15.5 15.9-2.7.4-5 2.7-5 5.8 0 7.4-3.1 14-8.5 19-1.5 1.6-2.3 3.5-1.9 5.4.4 1.6.4 3.1.4 4.7 0 8.5-4.7 16.3-12.4 20.6-1.6.8-2.3 1.9-3.1 3.5-.4 1.6-.4 3.1.8 4.7 16.3 26.8 45 42.7 76 42.7 49.3 0 89.2-40 89.2-89.2 0-34.1-20.2-66-51.2-80.7-1.3 0-2.1-.4-2.9-.4zm41.9 81.4c0 42.7-34.9 77.6-77.6 77.6-25.2 0-48.5-12-63.2-32.6 8.5-6.6 13.6-16.3 13.6-27.2 0-1.2 0-2.7-.4-3.9 5.4-5.8 8.5-12.8 9.7-20.6 10.5-3.1 18.6-12 20.6-23.3.1-.1 1.2-1.1 2.8-2.5.5-.4 7.9 2.1 8.5 1.6 3.4-2.9 5.5-4.9 10.1-7.6.4-.2-3.3-5.3-2.9-5.5 1.8-1 3.6-1.8 5.1-2.2 13.6-2.7 25.6-10.9 33.8-22.1 24.4 14 39.9 40 39.9 68.3z"/><path class="st2" d="M242 262.3c-30.7 0-58.4-15.6-74.3-41.7l-.1-.1-.1-.1c-.6-.8-.7-1.6-.5-2.8.6-1.2 1.1-1.9 2.1-2.4 8.5-4.7 13.5-13 13.5-22.3 0-1.6 0-3.3-.5-5.1-.3-1.5.8-2.9 1.4-3.5 5.9-5.5 9.1-12.6 9.1-20.4 0-2.2 1.7-3.6 3.3-3.8 8.9-.8 16.3-8.5 17.2-17.7v-.2c0-.7.2-1.3 1.4-2.5l.1-.1s1.1-1.3 2.5-2.4c1.1.5 3 1.4 4.5 2.2 1.5.8 2.7 1.3 3.6 1.7h-.5c-.6 0-1.1.2-1.5.5-1.7 1.4-2.8 2.5-3 2.7l-.4.4-.1.6c-1.8 10.3-9.3 18.8-19.2 21.7l-1.2.4-.2 1.3c-1.1 7.6-4.2 14.2-9.2 19.5l-.8.9.4 1.1c.3.9.3 2.2.3 3.2 0 10.1-4.5 19.2-12.8 25.6l-1.5 1.2 1.1 1.6c15.2 21.2 38.9 33.4 64.9 33.4 43.9 0 79.6-35.7 79.6-79.6 0-28.8-15.7-55.6-41-70l-1.6-.9-1.1 1.5c-8.1 11.2-19.6 18.7-32.5 21.3h-.2c-.4.1-.8.2-1.2.4-.1-.6-.3-1.2-.4-1.8-.4-1.6-.9-4.1-1-5.3.2-.1.4-.2.6-.4 12.8-2.5 24.1-10.6 30.9-22.2.8-1.3 2.1-2.1 3.3-2.1.1 0 .4.1.6.1.4.1.9.2 1.6.3 30.2 14.5 49.7 45.4 49.7 78.7.4 48-38.7 87.1-86.8 87.1zm-9.6-119.7c-.7-.1-1.9-.4-2.8-.7 3.8-1.7 5.1-2.3 11.1-5.8 0 0 0 .1.1.1-3.2 2-5.1 3.7-7.5 5.7l-.9.7z"/><path class="st2" d="M266.5 200.7c-9.7 0-17.5 7.8-17.5 17.5s7.8 17.5 17.5 17.5 17.5-7.8 17.5-17.5c-.1-9.8-7.8-17.5-17.5-17.5zm0 23.2c-3.1 0-5.8-2.7-5.8-5.8s2.7-5.8 5.8-5.8 5.8 2.7 5.8 5.8-2.7 5.8-5.8 5.8z"/><path class="st2" d="M266.5 233.6c-8.5 0-15.5-6.9-15.5-15.5 0-8.7 6.8-15.5 15.5-15.5s15.5 6.8 15.5 15.5c-.1 8.5-7 15.5-15.5 15.5zm0-23.3c-4.2 0-7.8 3.6-7.8 7.8s3.6 7.8 7.8 7.8c4.2 0 7.8-3.6 7.8-7.8s-3.6-7.8-7.8-7.8zM248.7 130c0-10.1-8.1-18.2-18.2-18.2s-18.2 8.1-18.2 18.2 8.2 18.2 18.2 18.2c10.1.1 18.2-8.4 18.2-18.2zm-17.8 6.3c-3.5 0-6.6-2.7-6.6-6.6 0-3.9 2.7-6.6 6.6-6.6 3.9 0 6.6 2.7 6.6 6.6-.1 3.8-3.2 6.6-6.6 6.6z"/><path class="st2" d="M230.5 146.3c-9 0-16.2-7.3-16.2-16.2 0-9 7.3-16.2 16.2-16.2 9 0 16.2 7.3 16.2 16.2 0 8.7-7.4 16.2-16.2 16.2zm.4-25.2c-5 0-8.6 3.6-8.6 8.6 0 4.8 3.8 8.6 8.6 8.6s8.6-3.8 8.6-8.6c-.1-5-3.7-8.6-8.6-8.6zm69.1 11.5c0-10.1-8.1-18.2-18.2-18.2s-18.2 8.1-18.2 18.2 8.2 18.2 18.2 18.2c10 .1 18.2-8.5 18.2-18.2zm-17.9 6.2c-3.5 0-6.6-2.7-6.6-6.6 0-3.9 2.7-6.6 6.6-6.6 3.9 0 6.6 2.7 6.6 6.6 0 3.9-3.1 6.6-6.6 6.6z"/><path class="st2" d="M281.7 148.9c-9 0-16.2-7.3-16.2-16.2 0-9 7.3-16.2 16.2-16.2 9 0 16.2 7.3 16.2 16.2.1 8.7-7.4 16.2-16.2 16.2zm.4-25.3c-5 0-8.6 3.6-8.6 8.6 0 4.8 3.8 8.6 8.6 8.6s8.6-3.8 8.6-8.6c0-4.9-3.6-8.6-8.6-8.6zm-93.2 30.1c-3 0-5.4-2.4-5.4-5.4 0-3 2.4-5.4 5.4-5.4 3 0 5.4 2.4 5.4 5.4 0 3-2.4 5.4-5.4 5.4z"/><path class="st2" d="M188.9 151.7c-1.9 0-3.4-1.5-3.4-3.4s1.5-3.4 3.4-3.4 3.4 1.5 3.4 3.4-1.5 3.4-3.4 3.4zm81.4-72.1c-3 0-5.4-2.4-5.4-5.4 0-3 2.4-5.4 5.4-5.4 3 0 5.4 2.4 5.4 5.4.1 3-2.4 5.4-5.4 5.4z"/><path class="st2" d="M270.3 77.6c-1.9 0-3.4-1.5-3.4-3.4s1.5-3.4 3.4-3.4 3.4 1.5 3.4 3.4c.1 1.9-1.5 3.4-3.4 3.4zm-22.5 29.2c-3 0-5.4-2.4-5.4-5.4 0-3 2.4-5.4 5.4-5.4s5.4 2.4 5.4 5.4c.1 2.9-2.4 5.4-5.4 5.4z"/><path class="st2" d="M247.8 104.8c-1.9 0-3.4-1.5-3.4-3.4s1.5-3.4 3.4-3.4 3.4 1.5 3.4 3.4c.1 1.8-1.5 3.4-3.4 3.4zm-.7 80c-3 0-5.4-2.4-5.4-5.4s2.4-5.4 5.4-5.4c3 0 5.4 2.4 5.4 5.4s-2.4 5.4-5.4 5.4z"/><path class="st2" d="M247.1 182.8c-1.9 0-3.4-1.5-3.4-3.4s1.5-3.4 3.4-3.4 3.4 1.5 3.4 3.4c0 1.8-1.5 3.4-3.4 3.4zm-38.5 40.4c-3 0-5.4-2.4-5.4-5.4 0-3 2.4-5.4 5.4-5.4 3 0 5.4 2.4 5.4 5.4.1 2.9-2.3 5.4-5.4 5.4z"/><path class="st2" d="M208.6 221.2c-1.9 0-3.4-1.5-3.4-3.4s1.5-3.4 3.4-3.4 3.4 1.5 3.4 3.4c.1 1.8-1.5 3.4-3.4 3.4z"/></g><g id="logo"><path class="st3" d="M113.7 57.5l56.3 56.2-56.3 56.3 26-56.2-26-56.3z"/><path class="st3" d="M113.7 170l-56.2-56.2 56.2-56.2-26 56.2 26 56.2zm0 0l26-56.2 9.1 21.2"/><path class="st3" d="M113.8 170l-26-56.2-9.1 21.2m35-1L92 113.8l21.8-19.1 21.8 19.1-21.9 20.2z"/><path class="st3" d="M113.7 134l21.8-20.2-21.8 56.2"/><path class="st3" d="M113.7 170L92 113.8l21.8 20.2"/></g></svg>